<mxfile host="65bd71144e">
    <diagram id="bpbkTxAe3MsM5qXTKhsR" name="Page-1">
        <mxGraphModel dx="1065" dy="475" grid="1" gridSize="10" guides="1" tooltips="1" connect="1" arrows="1" fold="1" page="1" pageScale="1" pageWidth="1100" pageHeight="850" math="0" shadow="0">
            <root>
                <mxCell id="0"/>
                <mxCell id="1" parent="0"/>
                <mxCell id="154" value="Decorator Design Pattern" style="text;html=1;align=center;verticalAlign=middle;resizable=0;points=[];autosize=1;strokeColor=#C73500;fillColor=#fa6800;fontColor=#000000;fontSize=25;movable=0;rotatable=0;deletable=0;editable=0;connectable=0;" parent="1" vertex="1">
                    <mxGeometry x="60" y="40" width="310" height="40" as="geometry"/>
                </mxCell>
                <mxCell id="201" value="&lt;font style=&quot;font-size: 14px;&quot;&gt;Attach aditional responsibilities to an object &lt;b&gt;&lt;i&gt;&lt;font color=&quot;#ff9933&quot;&gt;dynmically&lt;/font&gt;&lt;/i&gt;&lt;/b&gt;.&lt;br&gt;&amp;nbsp;Decorators provide a flexible alternative to sublassing for extending for functionality&lt;/font&gt;" style="shape=note2;boundedLbl=1;whiteSpace=wrap;html=1;size=25;verticalAlign=top;align=left;movable=0;resizable=0;rotatable=0;deletable=0;editable=0;connectable=0;" parent="1" vertex="1">
                    <mxGeometry x="420" y="25" width="530" height="70" as="geometry"/>
                </mxCell>
                <mxCell id="202" value="&lt;font style=&quot;font-size: 12px;&quot; color=&quot;#ffffff&quot;&gt;Client&lt;/font&gt;" style="html=1;fontSize=14;fontColor=#FF9933;movable=0;resizable=0;rotatable=0;deletable=0;editable=0;connectable=0;" parent="1" vertex="1">
                    <mxGeometry x="70" y="190" width="80" height="30" as="geometry"/>
                </mxCell>
                <mxCell id="203" value="ConcreteComponent" style="swimlane;fontStyle=1;align=center;verticalAlign=top;childLayout=stackLayout;horizontal=1;startSize=26;horizontalStack=0;resizeParent=1;resizeParentMax=0;resizeLast=0;collapsible=1;marginBottom=0;fontSize=12;fillColor=#a20025;strokeColor=#6F0000;fontColor=#ffffff;movable=0;resizable=0;rotatable=0;deletable=0;editable=0;connectable=0;" parent="1" vertex="1">
                    <mxGeometry x="280" y="320" width="160" height="60" as="geometry"/>
                </mxCell>
                <mxCell id="205" value="" style="line;strokeWidth=1;fillColor=none;align=left;verticalAlign=middle;spacingTop=-1;spacingLeft=3;spacingRight=3;rotatable=0;labelPosition=right;points=[];portConstraint=eastwest;strokeColor=inherit;fontSize=12;fontColor=#FFFFFF;movable=0;resizable=0;deletable=0;editable=0;connectable=0;" parent="203" vertex="1">
                    <mxGeometry y="26" width="160" height="8" as="geometry"/>
                </mxCell>
                <mxCell id="206" value="+Operation():void" style="text;strokeColor=none;fillColor=none;align=left;verticalAlign=top;spacingLeft=4;spacingRight=4;overflow=hidden;rotatable=0;points=[[0,0.5],[1,0.5]];portConstraint=eastwest;fontSize=12;fontColor=#FFFFFF;movable=0;resizable=0;deletable=0;editable=0;connectable=0;" parent="203" vertex="1">
                    <mxGeometry y="34" width="160" height="26" as="geometry"/>
                </mxCell>
                <mxCell id="211" value="&lt;&lt;interface&gt;&gt;&#10;IComponent" style="swimlane;fontStyle=1;align=center;verticalAlign=top;childLayout=stackLayout;horizontal=1;startSize=40;horizontalStack=0;resizeParent=1;resizeParentMax=0;resizeLast=0;collapsible=1;marginBottom=0;fontSize=12;fontColor=#ffffff;fillColor=#0050ef;strokeColor=#001DBC;movable=0;resizable=0;rotatable=0;deletable=0;editable=0;connectable=0;" parent="1" vertex="1">
                    <mxGeometry x="360" y="140" width="160" height="74" as="geometry"/>
                </mxCell>
                <mxCell id="213" value="" style="line;strokeWidth=1;fillColor=none;align=left;verticalAlign=middle;spacingTop=-1;spacingLeft=3;spacingRight=3;rotatable=0;labelPosition=right;points=[];portConstraint=eastwest;strokeColor=inherit;fontSize=12;fontColor=#FFFFFF;movable=0;resizable=0;deletable=0;editable=0;connectable=0;" parent="211" vertex="1">
                    <mxGeometry y="40" width="160" height="8" as="geometry"/>
                </mxCell>
                <mxCell id="214" value="+Operation():void" style="text;strokeColor=none;fillColor=none;align=left;verticalAlign=top;spacingLeft=4;spacingRight=4;overflow=hidden;rotatable=0;points=[[0,0.5],[1,0.5]];portConstraint=eastwest;fontSize=12;fontColor=#FFFFFF;movable=0;resizable=0;deletable=0;editable=0;connectable=0;" parent="211" vertex="1">
                    <mxGeometry y="48" width="160" height="26" as="geometry"/>
                </mxCell>
                <mxCell id="215" value="Use" style="endArrow=open;endSize=12;dashed=1;html=1;fontSize=12;fontColor=#FFFFFF;entryX=-0.009;entryY=0.791;entryDx=0;entryDy=0;entryPerimeter=0;movable=0;resizable=0;rotatable=0;deletable=0;editable=0;connectable=0;" parent="1" edge="1">
                    <mxGeometry width="160" relative="1" as="geometry">
                        <mxPoint x="150" y="200" as="sourcePoint"/>
                        <mxPoint x="358.55999999999995" y="200.56600000000003" as="targetPoint"/>
                    </mxGeometry>
                </mxCell>
                <mxCell id="216" value="" style="endArrow=block;dashed=1;endFill=0;endSize=12;html=1;fontSize=12;fontColor=#FFFFFF;exitX=0.75;exitY=0;exitDx=0;exitDy=0;entryX=0.255;entryY=1.086;entryDx=0;entryDy=0;entryPerimeter=0;movable=0;resizable=0;rotatable=0;deletable=0;editable=0;connectable=0;" parent="1" source="203" target="214" edge="1">
                    <mxGeometry width="160" relative="1" as="geometry">
                        <mxPoint x="450" y="240" as="sourcePoint"/>
                        <mxPoint x="610" y="240" as="targetPoint"/>
                    </mxGeometry>
                </mxCell>
                <mxCell id="217" value="Implement" style="edgeLabel;html=1;align=center;verticalAlign=middle;resizable=0;points=[];fontSize=12;fontColor=#FFFFFF;movable=0;rotatable=0;deletable=0;editable=0;connectable=0;" parent="216" vertex="1" connectable="0">
                    <mxGeometry x="0.3538" relative="1" as="geometry">
                        <mxPoint as="offset"/>
                    </mxGeometry>
                </mxCell>
                <mxCell id="220" value="&lt;&lt;abstract&gt;&gt;&#10;Decorator" style="swimlane;fontStyle=1;align=center;verticalAlign=top;childLayout=stackLayout;horizontal=1;startSize=40;horizontalStack=0;resizeParent=1;resizeParentMax=0;resizeLast=0;collapsible=1;marginBottom=0;strokeColor=#001DBC;fontSize=12;fontColor=#ffffff;fillColor=#0050ef;movable=0;resizable=0;rotatable=0;deletable=0;editable=0;connectable=0;" parent="1" vertex="1">
                    <mxGeometry x="560" y="280" width="160" height="100" as="geometry"/>
                </mxCell>
                <mxCell id="221" value="-component:IComponenet" style="text;strokeColor=none;fillColor=none;align=left;verticalAlign=top;spacingLeft=4;spacingRight=4;overflow=hidden;rotatable=0;points=[[0,0.5],[1,0.5]];portConstraint=eastwest;fontSize=12;fontColor=#FFFFFF;movable=0;resizable=0;deletable=0;editable=0;connectable=0;" parent="220" vertex="1">
                    <mxGeometry y="40" width="160" height="26" as="geometry"/>
                </mxCell>
                <mxCell id="222" value="" style="line;strokeWidth=1;fillColor=none;align=left;verticalAlign=middle;spacingTop=-1;spacingLeft=3;spacingRight=3;rotatable=0;labelPosition=right;points=[];portConstraint=eastwest;strokeColor=inherit;fontSize=10;fontColor=#808080;movable=0;resizable=0;deletable=0;editable=0;connectable=0;" parent="220" vertex="1">
                    <mxGeometry y="66" width="160" height="8" as="geometry"/>
                </mxCell>
                <mxCell id="223" value="+Operation():void" style="text;strokeColor=none;fillColor=none;align=left;verticalAlign=top;spacingLeft=4;spacingRight=4;overflow=hidden;rotatable=0;points=[[0,0.5],[1,0.5]];portConstraint=eastwest;fontSize=12;fontColor=#FFFFFF;movable=0;resizable=0;deletable=0;editable=0;connectable=0;" parent="220" vertex="1">
                    <mxGeometry y="74" width="160" height="26" as="geometry"/>
                </mxCell>
                <mxCell id="224" value="" style="endArrow=block;dashed=1;endFill=0;endSize=12;html=1;fontSize=12;fontColor=#FFFFFF;exitX=0.25;exitY=0;exitDx=0;exitDy=0;entryX=0.255;entryY=1.086;entryDx=0;entryDy=0;entryPerimeter=0;movable=0;resizable=0;rotatable=0;deletable=0;editable=0;connectable=0;" parent="1" source="220" edge="1">
                    <mxGeometry width="160" relative="1" as="geometry">
                        <mxPoint x="480" y="320" as="sourcePoint"/>
                        <mxPoint x="480.79999999999995" y="216.236" as="targetPoint"/>
                        <Array as="points">
                            <mxPoint x="600" y="240"/>
                            <mxPoint x="480" y="240"/>
                        </Array>
                    </mxGeometry>
                </mxCell>
                <mxCell id="225" value="Implement" style="edgeLabel;html=1;align=center;verticalAlign=middle;resizable=0;points=[];fontSize=12;fontColor=#FFFFFF;movable=0;rotatable=0;deletable=0;editable=0;connectable=0;" parent="224" vertex="1" connectable="0">
                    <mxGeometry x="0.3538" relative="1" as="geometry">
                        <mxPoint as="offset"/>
                    </mxGeometry>
                </mxCell>
                <mxCell id="228" value="ConcreteDecorator1" style="swimlane;fontStyle=1;align=center;verticalAlign=top;childLayout=stackLayout;horizontal=1;startSize=26;horizontalStack=0;resizeParent=1;resizeParentMax=0;resizeLast=0;collapsible=1;marginBottom=0;strokeColor=#A50040;fontSize=12;fontColor=#ffffff;fillColor=#d80073;movable=0;resizable=0;rotatable=0;deletable=0;editable=0;connectable=0;" parent="1" vertex="1">
                    <mxGeometry x="460" y="440" width="160" height="70" as="geometry"/>
                </mxCell>
                <mxCell id="230" value="" style="line;strokeWidth=1;fillColor=none;align=left;verticalAlign=middle;spacingTop=-1;spacingLeft=3;spacingRight=3;rotatable=0;labelPosition=right;points=[];portConstraint=eastwest;strokeColor=inherit;fontSize=12;fontColor=#FFFFFF;movable=0;resizable=0;deletable=0;editable=0;connectable=0;" parent="228" vertex="1">
                    <mxGeometry y="26" width="160" height="8" as="geometry"/>
                </mxCell>
                <mxCell id="231" value="+Operation():void&#10;+AddBehavior1():void" style="text;strokeColor=none;fillColor=none;align=left;verticalAlign=top;spacingLeft=4;spacingRight=4;overflow=hidden;rotatable=0;points=[[0,0.5],[1,0.5]];portConstraint=eastwest;fontSize=12;fontColor=#FFFFFF;movable=0;resizable=0;deletable=0;editable=0;connectable=0;" parent="228" vertex="1">
                    <mxGeometry y="34" width="160" height="36" as="geometry"/>
                </mxCell>
                <mxCell id="232" value="ConcreteDecorator2" style="swimlane;fontStyle=1;align=center;verticalAlign=top;childLayout=stackLayout;horizontal=1;startSize=26;horizontalStack=0;resizeParent=1;resizeParentMax=0;resizeLast=0;collapsible=1;marginBottom=0;strokeColor=#A50040;fontSize=12;fontColor=#ffffff;fillColor=#d80073;movable=0;resizable=0;rotatable=0;deletable=0;editable=0;connectable=0;" parent="1" vertex="1">
                    <mxGeometry x="650" y="440" width="160" height="70" as="geometry"/>
                </mxCell>
                <mxCell id="233" value="" style="line;strokeWidth=1;fillColor=none;align=left;verticalAlign=middle;spacingTop=-1;spacingLeft=3;spacingRight=3;rotatable=0;labelPosition=right;points=[];portConstraint=eastwest;strokeColor=inherit;fontSize=12;fontColor=#FFFFFF;movable=0;resizable=0;deletable=0;editable=0;connectable=0;" parent="232" vertex="1">
                    <mxGeometry y="26" width="160" height="8" as="geometry"/>
                </mxCell>
                <mxCell id="234" value="+Operation():void&#10;+AddBehavior2():void" style="text;strokeColor=none;fillColor=none;align=left;verticalAlign=top;spacingLeft=4;spacingRight=4;overflow=hidden;rotatable=0;points=[[0,0.5],[1,0.5]];portConstraint=eastwest;fontSize=12;fontColor=#FFFFFF;movable=0;resizable=0;deletable=0;editable=0;connectable=0;" parent="232" vertex="1">
                    <mxGeometry y="34" width="160" height="36" as="geometry"/>
                </mxCell>
                <mxCell id="236" value="1" style="endArrow=open;html=1;endSize=12;startArrow=diamondThin;startSize=14;startFill=0;edgeStyle=orthogonalEdgeStyle;align=left;verticalAlign=bottom;dashed=1;fontSize=12;fontColor=#FFFFFF;entryX=1;entryY=0.5;entryDx=0;entryDy=0;exitX=0.5;exitY=0;exitDx=0;exitDy=0;movable=0;resizable=0;rotatable=0;deletable=0;editable=0;connectable=0;" parent="1" source="220" target="214" edge="1">
                    <mxGeometry x="-0.8995" y="10" relative="1" as="geometry">
                        <mxPoint x="640" y="230" as="sourcePoint"/>
                        <mxPoint x="800" y="230" as="targetPoint"/>
                        <mxPoint as="offset"/>
                    </mxGeometry>
                </mxCell>
                <mxCell id="237" value="Has-A" style="edgeLabel;html=1;align=center;verticalAlign=middle;resizable=0;points=[];fontSize=12;fontColor=#FFFFFF;movable=0;rotatable=0;deletable=0;editable=0;connectable=0;" parent="236" vertex="1" connectable="0">
                    <mxGeometry x="0.4773" y="-1" relative="1" as="geometry">
                        <mxPoint as="offset"/>
                    </mxGeometry>
                </mxCell>
                <mxCell id="252" value="" style="group;movable=0;resizable=0;rotatable=0;deletable=0;editable=0;connectable=0;" parent="1" vertex="1" connectable="0">
                    <mxGeometry x="870" y="150" width="160" height="127.5" as="geometry"/>
                </mxCell>
                <mxCell id="244" value="&lt;font style=&quot;font-size: 7px;&quot;&gt;ConcreteComponent&lt;/font&gt;" style="rounded=1;whiteSpace=wrap;html=1;strokeColor=#FFFFFF;fontSize=12;fontColor=#FFFFFF;movable=0;resizable=0;rotatable=0;deletable=0;editable=0;connectable=0;" parent="252" vertex="1">
                    <mxGeometry x="40" y="22.5" width="80" height="35" as="geometry"/>
                </mxCell>
                <mxCell id="248" value="&lt;br&gt;&lt;br&gt;&lt;br&gt;&lt;br&gt;&lt;br&gt;&lt;br&gt;&lt;br&gt;ConcreteDecorator1" style="ellipse;whiteSpace=wrap;html=1;fillStyle=auto;strokeColor=#FFFFFF;fontSize=7;fontColor=#FFFFFF;fillColor=none;movable=0;resizable=0;rotatable=0;deletable=0;editable=0;connectable=0;" parent="252" vertex="1">
                    <mxGeometry x="20" y="12.5" width="120" height="80" as="geometry"/>
                </mxCell>
                <mxCell id="250" value="&lt;br&gt;&lt;br&gt;&lt;br&gt;&lt;br&gt;&lt;br&gt;&lt;br&gt;&lt;br&gt;&lt;br&gt;&lt;br&gt;&lt;br&gt;&lt;br&gt;&lt;br&gt;ConcreteDecorator2" style="ellipse;whiteSpace=wrap;html=1;fillStyle=auto;strokeColor=#FFFFFF;fontSize=7;fontColor=#FFFFFF;fillColor=none;movable=0;resizable=0;rotatable=0;deletable=0;editable=0;connectable=0;" parent="252" vertex="1">
                    <mxGeometry width="160" height="127.5" as="geometry"/>
                </mxCell>
                <mxCell id="256" value="" style="endArrow=block;dashed=1;endFill=0;endSize=12;html=1;fontSize=7;fontColor=#FFFFFF;exitX=0.816;exitY=-0.064;exitDx=0;exitDy=0;exitPerimeter=0;entryX=0.191;entryY=1;entryDx=0;entryDy=0;entryPerimeter=0;movable=0;resizable=0;rotatable=0;deletable=0;editable=0;connectable=0;" parent="1" source="228" target="223" edge="1">
                    <mxGeometry width="160" relative="1" as="geometry">
                        <mxPoint x="550" y="260" as="sourcePoint"/>
                        <mxPoint x="710" y="260" as="targetPoint"/>
                        <Array as="points"/>
                    </mxGeometry>
                </mxCell>
                <mxCell id="257" value="extend" style="edgeLabel;html=1;align=center;verticalAlign=middle;resizable=0;points=[];fontSize=7;fontColor=#FFFFFF;movable=0;rotatable=0;deletable=0;editable=0;connectable=0;" parent="256" vertex="1" connectable="0">
                    <mxGeometry x="-0.4038" y="1" relative="1" as="geometry">
                        <mxPoint as="offset"/>
                    </mxGeometry>
                </mxCell>
                <mxCell id="258" value="" style="endArrow=block;dashed=1;endFill=0;endSize=12;html=1;fontSize=7;fontColor=#FFFFFF;exitX=0.816;exitY=-0.064;exitDx=0;exitDy=0;exitPerimeter=0;entryX=0.75;entryY=1;entryDx=0;entryDy=0;entryPerimeter=0;movable=0;resizable=0;rotatable=0;deletable=0;editable=0;connectable=0;" parent="1" target="223" edge="1">
                    <mxGeometry width="160" relative="1" as="geometry">
                        <mxPoint x="680" y="440.0000000000001" as="sourcePoint"/>
                        <mxPoint x="680" y="384.48" as="targetPoint"/>
                        <Array as="points"/>
                    </mxGeometry>
                </mxCell>
                <mxCell id="259" value="extend" style="edgeLabel;html=1;align=center;verticalAlign=middle;resizable=0;points=[];fontSize=7;fontColor=#FFFFFF;movable=0;rotatable=0;deletable=0;editable=0;connectable=0;" parent="258" vertex="1" connectable="0">
                    <mxGeometry x="-0.4038" y="1" relative="1" as="geometry">
                        <mxPoint y="-2" as="offset"/>
                    </mxGeometry>
                </mxCell>
                <mxCell id="260" value="&lt;font style=&quot;font-size: 12px;&quot; color=&quot;#ffffff&quot;&gt;Client&lt;/font&gt;" style="html=1;fontSize=14;fontColor=#FF9933;movable=0;resizable=0;rotatable=0;deletable=0;editable=0;connectable=0;" parent="1" vertex="1">
                    <mxGeometry x="80" y="980" width="80" height="30" as="geometry"/>
                </mxCell>
                <mxCell id="261" value="SimpleCoffee" style="swimlane;fontStyle=1;align=center;verticalAlign=top;childLayout=stackLayout;horizontal=1;startSize=26;horizontalStack=0;resizeParent=1;resizeParentMax=0;resizeLast=0;collapsible=1;marginBottom=0;fontSize=12;fillColor=#a20025;strokeColor=#6F0000;fontColor=#ffffff;movable=0;resizable=0;rotatable=0;deletable=0;editable=0;connectable=0;" parent="1" vertex="1">
                    <mxGeometry x="290" y="1110" width="160" height="70" as="geometry"/>
                </mxCell>
                <mxCell id="262" value="" style="line;strokeWidth=1;fillColor=none;align=left;verticalAlign=middle;spacingTop=-1;spacingLeft=3;spacingRight=3;rotatable=0;labelPosition=right;points=[];portConstraint=eastwest;strokeColor=inherit;fontSize=12;fontColor=#FFFFFF;movable=0;resizable=0;deletable=0;editable=0;connectable=0;" parent="261" vertex="1">
                    <mxGeometry y="26" width="160" height="8" as="geometry"/>
                </mxCell>
                <mxCell id="263" value="+Cost():double&#10;+Description():string" style="text;strokeColor=none;fillColor=none;align=left;verticalAlign=top;spacingLeft=4;spacingRight=4;overflow=hidden;rotatable=0;points=[[0,0.5],[1,0.5]];portConstraint=eastwest;fontSize=12;fontColor=#FFFFFF;movable=0;resizable=0;deletable=0;editable=0;connectable=0;" parent="261" vertex="1">
                    <mxGeometry y="34" width="160" height="36" as="geometry"/>
                </mxCell>
                <mxCell id="264" value="&lt;&lt;interface&gt;&gt;&#10;ICoffee" style="swimlane;fontStyle=1;align=center;verticalAlign=top;childLayout=stackLayout;horizontal=1;startSize=40;horizontalStack=0;resizeParent=1;resizeParentMax=0;resizeLast=0;collapsible=1;marginBottom=0;fontSize=12;fontColor=#ffffff;fillColor=#0050ef;strokeColor=#001DBC;movable=0;resizable=0;rotatable=0;deletable=0;editable=0;connectable=0;" parent="1" vertex="1">
                    <mxGeometry x="370" y="930" width="160" height="90" as="geometry"/>
                </mxCell>
                <mxCell id="265" value="" style="line;strokeWidth=1;fillColor=none;align=left;verticalAlign=middle;spacingTop=-1;spacingLeft=3;spacingRight=3;rotatable=0;labelPosition=right;points=[];portConstraint=eastwest;strokeColor=inherit;fontSize=12;fontColor=#FFFFFF;movable=0;resizable=0;deletable=0;editable=0;connectable=0;" parent="264" vertex="1">
                    <mxGeometry y="40" width="160" height="8" as="geometry"/>
                </mxCell>
                <mxCell id="266" value="+Cost():double&#10;+Description():string" style="text;strokeColor=none;fillColor=none;align=left;verticalAlign=top;spacingLeft=4;spacingRight=4;overflow=hidden;rotatable=0;points=[[0,0.5],[1,0.5]];portConstraint=eastwest;fontSize=12;fontColor=#FFFFFF;movable=0;resizable=0;deletable=0;editable=0;connectable=0;" parent="264" vertex="1">
                    <mxGeometry y="48" width="160" height="42" as="geometry"/>
                </mxCell>
                <mxCell id="267" value="Use" style="endArrow=open;endSize=12;dashed=1;html=1;fontSize=12;fontColor=#FFFFFF;entryX=-0.009;entryY=0.791;entryDx=0;entryDy=0;entryPerimeter=0;movable=0;resizable=0;rotatable=0;deletable=0;editable=0;connectable=0;" parent="1" edge="1">
                    <mxGeometry width="160" relative="1" as="geometry">
                        <mxPoint x="160" y="990" as="sourcePoint"/>
                        <mxPoint x="368.55999999999995" y="990.566" as="targetPoint"/>
                    </mxGeometry>
                </mxCell>
                <mxCell id="268" value="" style="endArrow=block;dashed=1;endFill=0;endSize=12;html=1;fontSize=12;fontColor=#FFFFFF;exitX=0.75;exitY=0;exitDx=0;exitDy=0;entryX=0.255;entryY=1.086;entryDx=0;entryDy=0;entryPerimeter=0;movable=0;resizable=0;rotatable=0;deletable=0;editable=0;connectable=0;" parent="1" source="261" target="266" edge="1">
                    <mxGeometry width="160" relative="1" as="geometry">
                        <mxPoint x="460" y="1030" as="sourcePoint"/>
                        <mxPoint x="620" y="1030" as="targetPoint"/>
                    </mxGeometry>
                </mxCell>
                <mxCell id="269" value="Implement" style="edgeLabel;html=1;align=center;verticalAlign=middle;resizable=0;points=[];fontSize=12;fontColor=#FFFFFF;movable=0;rotatable=0;deletable=0;editable=0;connectable=0;" parent="268" vertex="1" connectable="0">
                    <mxGeometry x="0.3538" relative="1" as="geometry">
                        <mxPoint as="offset"/>
                    </mxGeometry>
                </mxCell>
                <mxCell id="270" value="&lt;&lt;abstract&gt;&gt;&#10;CoffeeDecorator" style="swimlane;fontStyle=1;align=center;verticalAlign=top;childLayout=stackLayout;horizontal=1;startSize=40;horizontalStack=0;resizeParent=1;resizeParentMax=0;resizeLast=0;collapsible=1;marginBottom=0;strokeColor=#001DBC;fontSize=12;fontColor=#ffffff;fillColor=#0050ef;movable=0;resizable=0;rotatable=0;deletable=0;editable=0;connectable=0;" parent="1" vertex="1">
                    <mxGeometry x="570" y="1070" width="160" height="110" as="geometry"/>
                </mxCell>
                <mxCell id="271" value="-coffe:ICoffee" style="text;strokeColor=none;fillColor=none;align=left;verticalAlign=top;spacingLeft=4;spacingRight=4;overflow=hidden;rotatable=0;points=[[0,0.5],[1,0.5]];portConstraint=eastwest;fontSize=12;fontColor=#FFFFFF;movable=0;resizable=0;deletable=0;editable=0;connectable=0;" parent="270" vertex="1">
                    <mxGeometry y="40" width="160" height="26" as="geometry"/>
                </mxCell>
                <mxCell id="272" value="" style="line;strokeWidth=1;fillColor=none;align=left;verticalAlign=middle;spacingTop=-1;spacingLeft=3;spacingRight=3;rotatable=0;labelPosition=right;points=[];portConstraint=eastwest;strokeColor=inherit;fontSize=10;fontColor=#808080;movable=0;resizable=0;deletable=0;editable=0;connectable=0;" parent="270" vertex="1">
                    <mxGeometry y="66" width="160" height="8" as="geometry"/>
                </mxCell>
                <mxCell id="273" value="+Cost():double&#10;+Description():string" style="text;strokeColor=none;fillColor=none;align=left;verticalAlign=top;spacingLeft=4;spacingRight=4;overflow=hidden;rotatable=0;points=[[0,0.5],[1,0.5]];portConstraint=eastwest;fontSize=12;fontColor=#FFFFFF;movable=0;resizable=0;deletable=0;editable=0;connectable=0;" parent="270" vertex="1">
                    <mxGeometry y="74" width="160" height="36" as="geometry"/>
                </mxCell>
                <mxCell id="276" value="MilkDecorator" style="swimlane;fontStyle=1;align=center;verticalAlign=top;childLayout=stackLayout;horizontal=1;startSize=26;horizontalStack=0;resizeParent=1;resizeParentMax=0;resizeLast=0;collapsible=1;marginBottom=0;strokeColor=#A50040;fontSize=12;fontColor=#ffffff;fillColor=#d80073;movable=0;resizable=0;rotatable=0;deletable=0;editable=0;connectable=0;" parent="1" vertex="1">
                    <mxGeometry x="430" y="1250" width="160" height="100" as="geometry"/>
                </mxCell>
                <mxCell id="277" value="" style="line;strokeWidth=1;fillColor=none;align=left;verticalAlign=middle;spacingTop=-1;spacingLeft=3;spacingRight=3;rotatable=0;labelPosition=right;points=[];portConstraint=eastwest;strokeColor=inherit;fontSize=12;fontColor=#FFFFFF;movable=0;resizable=0;deletable=0;editable=0;connectable=0;" parent="276" vertex="1">
                    <mxGeometry y="26" width="160" height="8" as="geometry"/>
                </mxCell>
                <mxCell id="278" value="+Cost():double&#10;+Description():string&#10;" style="text;strokeColor=none;fillColor=none;align=left;verticalAlign=top;spacingLeft=4;spacingRight=4;overflow=hidden;rotatable=0;points=[[0,0.5],[1,0.5]];portConstraint=eastwest;fontSize=12;fontColor=#FFFFFF;movable=0;resizable=0;deletable=0;editable=0;connectable=0;" parent="276" vertex="1">
                    <mxGeometry y="34" width="160" height="66" as="geometry"/>
                </mxCell>
                <mxCell id="279" value="SugerDecorator" style="swimlane;fontStyle=1;align=center;verticalAlign=top;childLayout=stackLayout;horizontal=1;startSize=26;horizontalStack=0;resizeParent=1;resizeParentMax=0;resizeLast=0;collapsible=1;marginBottom=0;strokeColor=#A50040;fontSize=12;fontColor=#ffffff;fillColor=#d80073;movable=0;resizable=0;rotatable=0;deletable=0;editable=0;connectable=0;" parent="1" vertex="1">
                    <mxGeometry x="605" y="1250" width="160" height="100" as="geometry"/>
                </mxCell>
                <mxCell id="280" value="" style="line;strokeWidth=1;fillColor=none;align=left;verticalAlign=middle;spacingTop=-1;spacingLeft=3;spacingRight=3;rotatable=0;labelPosition=right;points=[];portConstraint=eastwest;strokeColor=inherit;fontSize=12;fontColor=#FFFFFF;movable=0;resizable=0;deletable=0;editable=0;connectable=0;" parent="279" vertex="1">
                    <mxGeometry y="26" width="160" height="8" as="geometry"/>
                </mxCell>
                <mxCell id="281" value="+Cost():double&#10;+Description():string&#10;" style="text;strokeColor=none;fillColor=none;align=left;verticalAlign=top;spacingLeft=4;spacingRight=4;overflow=hidden;rotatable=0;points=[[0,0.5],[1,0.5]];portConstraint=eastwest;fontSize=12;fontColor=#FFFFFF;movable=0;resizable=0;deletable=0;editable=0;connectable=0;" parent="279" vertex="1">
                    <mxGeometry y="34" width="160" height="66" as="geometry"/>
                </mxCell>
                <mxCell id="284" value="" style="endArrow=block;dashed=1;endFill=0;endSize=12;html=1;fontSize=7;fontColor=#FFFFFF;exitX=0.816;exitY=-0.064;exitDx=0;exitDy=0;exitPerimeter=0;entryX=0.191;entryY=1;entryDx=0;entryDy=0;entryPerimeter=0;movable=0;resizable=0;rotatable=0;deletable=0;editable=0;connectable=0;" parent="1" source="276" target="273" edge="1">
                    <mxGeometry width="160" relative="1" as="geometry">
                        <mxPoint x="560" y="1050" as="sourcePoint"/>
                        <mxPoint x="720" y="1050" as="targetPoint"/>
                        <Array as="points"/>
                    </mxGeometry>
                </mxCell>
                <mxCell id="285" value="extend" style="edgeLabel;html=1;align=center;verticalAlign=middle;resizable=0;points=[];fontSize=7;fontColor=#FFFFFF;movable=0;rotatable=0;deletable=0;editable=0;connectable=0;" parent="284" vertex="1" connectable="0">
                    <mxGeometry x="-0.4038" y="1" relative="1" as="geometry">
                        <mxPoint as="offset"/>
                    </mxGeometry>
                </mxCell>
                <mxCell id="286" value="" style="endArrow=block;dashed=1;endFill=0;endSize=12;html=1;fontSize=7;fontColor=#FFFFFF;exitX=0.183;exitY=-0.035;exitDx=0;exitDy=0;exitPerimeter=0;entryX=0.448;entryY=1.104;entryDx=0;entryDy=0;entryPerimeter=0;movable=0;resizable=0;rotatable=0;deletable=0;editable=0;connectable=0;" parent="1" source="279" target="273" edge="1">
                    <mxGeometry width="160" relative="1" as="geometry">
                        <mxPoint x="690" y="1230" as="sourcePoint"/>
                        <mxPoint x="690" y="1174.48" as="targetPoint"/>
                        <Array as="points"/>
                    </mxGeometry>
                </mxCell>
                <mxCell id="287" value="extend" style="edgeLabel;html=1;align=center;verticalAlign=middle;resizable=0;points=[];fontSize=7;fontColor=#FFFFFF;movable=0;rotatable=0;deletable=0;editable=0;connectable=0;" parent="286" vertex="1" connectable="0">
                    <mxGeometry x="-0.4038" y="1" relative="1" as="geometry">
                        <mxPoint y="-2" as="offset"/>
                    </mxGeometry>
                </mxCell>
                <mxCell id="317" value="" style="endArrow=block;dashed=1;endFill=0;endSize=12;html=1;fontSize=7;fontColor=#FFFFFF;entryX=1;entryY=0.5;entryDx=0;entryDy=0;exitX=0.5;exitY=0;exitDx=0;exitDy=0;movable=0;resizable=0;rotatable=0;deletable=0;editable=0;connectable=0;" parent="1" source="270" target="266" edge="1">
                    <mxGeometry width="160" relative="1" as="geometry">
                        <mxPoint x="640" y="1110" as="sourcePoint"/>
                        <mxPoint x="800" y="1110" as="targetPoint"/>
                        <Array as="points">
                            <mxPoint x="650" y="999"/>
                        </Array>
                    </mxGeometry>
                </mxCell>
                <mxCell id="318" value="&lt;font style=&quot;font-size: 10px;&quot;&gt;Implement&lt;/font&gt;" style="edgeLabel;html=1;align=center;verticalAlign=middle;resizable=0;points=[];fontSize=7;fontColor=#FFFFFF;movable=0;rotatable=0;deletable=0;editable=0;connectable=0;" parent="317" vertex="1" connectable="0">
                    <mxGeometry x="0.5267" y="-1" relative="1" as="geometry">
                        <mxPoint x="35" y="1" as="offset"/>
                    </mxGeometry>
                </mxCell>
                <mxCell id="319" value="CreamDecorator" style="swimlane;fontStyle=1;align=center;verticalAlign=top;childLayout=stackLayout;horizontal=1;startSize=26;horizontalStack=0;resizeParent=1;resizeParentMax=0;resizeLast=0;collapsible=1;marginBottom=0;strokeColor=#A50040;fontSize=12;fontColor=#ffffff;fillColor=#d80073;movable=0;resizable=0;rotatable=0;deletable=0;editable=0;connectable=0;" parent="1" vertex="1">
                    <mxGeometry x="790" y="1250" width="160" height="100" as="geometry"/>
                </mxCell>
                <mxCell id="320" value="" style="line;strokeWidth=1;fillColor=none;align=left;verticalAlign=middle;spacingTop=-1;spacingLeft=3;spacingRight=3;rotatable=0;labelPosition=right;points=[];portConstraint=eastwest;strokeColor=inherit;fontSize=12;fontColor=#FFFFFF;movable=0;resizable=0;deletable=0;editable=0;connectable=0;" parent="319" vertex="1">
                    <mxGeometry y="26" width="160" height="8" as="geometry"/>
                </mxCell>
                <mxCell id="321" value="+Cost():double&#10;+Description():string&#10;" style="text;strokeColor=none;fillColor=none;align=left;verticalAlign=top;spacingLeft=4;spacingRight=4;overflow=hidden;rotatable=0;points=[[0,0.5],[1,0.5]];portConstraint=eastwest;fontSize=12;fontColor=#FFFFFF;movable=0;resizable=0;deletable=0;editable=0;connectable=0;" parent="319" vertex="1">
                    <mxGeometry y="34" width="160" height="66" as="geometry"/>
                </mxCell>
                <mxCell id="324" value="" style="endArrow=block;dashed=1;endFill=0;endSize=12;html=1;fontSize=7;fontColor=#FFFFFF;exitX=0.201;exitY=-0.02;exitDx=0;exitDy=0;exitPerimeter=0;entryX=0.654;entryY=1.04;entryDx=0;entryDy=0;entryPerimeter=0;movable=0;resizable=0;rotatable=0;deletable=0;editable=0;connectable=0;" parent="1" source="319" target="273" edge="1">
                    <mxGeometry width="160" relative="1" as="geometry">
                        <mxPoint x="644.28" y="1256.4999999999998" as="sourcePoint"/>
                        <mxPoint x="651.6800000000001" y="1193.7440000000001" as="targetPoint"/>
                        <Array as="points"/>
                    </mxGeometry>
                </mxCell>
                <mxCell id="325" value="extend" style="edgeLabel;html=1;align=center;verticalAlign=middle;resizable=0;points=[];fontSize=7;fontColor=#FFFFFF;movable=0;rotatable=0;deletable=0;editable=0;connectable=0;" parent="324" vertex="1" connectable="0">
                    <mxGeometry x="-0.4038" y="1" relative="1" as="geometry">
                        <mxPoint y="-2" as="offset"/>
                    </mxGeometry>
                </mxCell>
            </root>
        </mxGraphModel>
    </diagram>
</mxfile>